<?xml version="1.0" encoding="UTF-8" standalone="no"?>
<svg
   width="240pt"
   height="240pt"
   viewBox="0 0 240 239.99999"
   version="1.1"
   id="svg31"
   sodipodi:docname="elite-assist.svg"
   inkscape:version="1.1.2 (b8e25be833, 2022-02-05)"
   inkscape:export-filename="C:\Users\keath\ws\EliteAssist\EliteAssistUI\assets\elite-assist.png"
   inkscape:export-xdpi="38.400002"
   inkscape:export-ydpi="38.400002"
   xmlns:inkscape="http://www.inkscape.org/namespaces/inkscape"
   xmlns:sodipodi="http://sodipodi.sourceforge.net/DTD/sodipodi-0.dtd"
   xmlns="http://www.w3.org/2000/svg"
   xmlns:svg="http://www.w3.org/2000/svg">
  <defs
     id="defs35" />
  <sodipodi:namedview
     id="namedview33"
     pagecolor="#000000"
     bordercolor="#666666"
     borderopacity="1.0"
     inkscape:pageshadow="2"
     inkscape:pageopacity="0"
     inkscape:pagecheckerboard="true"
     inkscape:document-units="pt"
     showgrid="false"
     inkscape:zoom="4.227325"
     inkscape:cx="210.06192"
     inkscape:cy="162.6324"
     inkscape:window-width="3840"
     inkscape:window-height="2054"
     inkscape:window-x="-11"
     inkscape:window-y="-11"
     inkscape:window-maximized="1"
     inkscape:current-layer="svg31" />
  <circle
     style="fill:none;fill-opacity:1;stroke:#ff2020;stroke-width:15;stroke-linecap:round;stroke-linejoin:round;stroke-miterlimit:4;stroke-dasharray:none;stroke-opacity:1;stop-color:#000000"
     id="path1141"
     cx="120.02271"
     cy="131.99837"
     r="86.047325" />
  <path
     id="path28"
     style="fill:#1e4cf5;fill-opacity:1;fill-rule:evenodd;stroke:none;stroke-width:1;stroke-miterlimit:4;stroke-dasharray:none"
     d="m 116.28814,206.86766 c -0.49754,-1.13809 -0.30984,-3.70626 0.12513,-4.59111 0.43201,-0.88486 0.88784,-1.24833 1.51647,-1.68629 -2.18383,-1.7578 -4.25147,-3.60497 -3.22658,-8.53275 l 3.99227,-19.16291 1.32877,-2.15405 1.32877,2.15405 3.98929,19.16291 c 1.02489,4.92778 -1.04275,6.77495 -3.22658,8.53275 0.62863,0.43796 1.08446,0.80143 1.51944,1.68629 0.432,0.88485 0.62268,3.45302 0.12215,4.59111 -1.38835,3.16999 -6.08077,3.16999 -7.46913,0 m 3.73606,-38.79061 -2.8512,3.55134 -2.59796,13.05533 -5.95861,-4.5643 11.40777,-21.99326 11.40479,21.99326 -5.95563,4.5643 -2.60094,-13.05533 z m 0,0 M 60.24435,128.1126 83.313152,146.10166 c 1.39431,1.08745 2.53837,2.88994 2.53837,4.65666 v 6.9835 l -22.50273,-18.12909 c -1.549243,-1.24834 -2.824387,-3.23255 -2.892912,-5.21975 z m 0,0 m 119.55672,0 -23.0688,17.98906 c -1.39431,1.08745 -2.53837,2.88994 -2.53837,4.65666 v 6.9835 l 22.50273,-18.12909 c 1.54924,-1.24834 2.82438,-3.23255 2.8929,-5.21975 z m 0,0 M 50.689704,63.378156 0.56579898,24.596483 C 0.34532898,34.255405 4.245246,44.72172 11.541576,50.71907 l 18.072491,14.854838 0.07449,3.000164 -11.342232,-8.854508 c -0.04767,8.097764 2.71713,16.734782 8.634039,21.88005 l 17.342559,15.07233 v 2.78267 L 34.809987,91.84248 c -0.953379,7.919004 2.842262,15.38217 8.488054,19.83028 l 40.759931,32.12292 c 2.23449,1.76375 4.10251,4.69241 4.02207,7.53765 l -0.14599,5.26742 c -0.0447,1.66842 0.97126,3.41429 2.27024,4.46599 l 18.000978,14.55988 9.73044,-19.68429 -48.440598,-36.8779 -1.02489,-5.70836 3.00017,-3.51261 -10.025381,-7.60915 -3.36364,-6.074806 -0.148965,-11.634208 C 53.77031,81.05738 50.752269,75.241767 50.689704,63.378156 m 138.666006,0 50.12391,-38.781673 c 0.22046,9.658922 -3.67945,20.125237 -10.97578,26.122587 l -18.07249,14.854838 -0.0744,3.000164 11.34223,-8.854508 c 0.0477,8.097764 -2.71714,16.734782 -8.63404,21.88005 l -17.3426,15.07233 v 2.78267 l 9.51293,-7.612134 c 0.95338,7.919004 -2.84226,15.38217 -8.48805,19.83028 l -40.75699,32.12292 c -2.23747,1.76375 -4.10549,4.69241 -4.02506,7.53765 l 0.14599,5.26742 c 0.0447,1.66842 -0.97125,3.41429 -2.26725,4.46599 l -18.00099,14.55988 -9.73341,-19.68429 48.4406,-36.8779 1.02488,-5.70836 -3.00016,-3.51261 10.02538,-7.60915 3.36661,-6.074806 0.14599,-11.634208 c 4.1621,-3.467916 7.18014,-9.283529 7.2427,-21.14714 M 60.324791,86.843198 60.220515,95.322314 c -0.01788,1.45986 0.566069,3.1253 1.707145,4.03398 l 11.220082,8.943886 2.79161,-3.67051 c 1.24237,-1.63266 0.83421,-4.832436 -0.77462,-6.101616 z m 0,0 m 119.395839,0 0.10427,8.479116 c 0.0179,1.45986 -0.56607,3.1253 -1.70714,4.03398 l -11.22008,8.943886 -2.79162,-3.67051 c -1.23939,-1.63266 -0.8342,-4.832436 0.77463,-6.101616 z m 0,0 m -60.43828,66.572672 -6.18803,-26.47713 -5.01417,-6.18803 c -5.40447,-0.36645 -10.222018,0.4469 -14.804188,-2.1153 -2.06764,-1.15598 -3.05678,-4.89501 -2.27322,-7.12949 1.17683,-3.35172 3.47388,-5.84839 6.81666,-8.45826 l -0.1579,-6.423386 -44.728378,-35.564021 c 0.235365,8.222895 1.415172,17.986092 7.755143,23.030063 l 14.962095,11.905318 c 2.80353,2.23151 4.34681,7.904106 1.95741,10.576546 l -5.95266,6.65876 c -1.04574,1.16789 -1.02191,3.75989 0.23536,4.69837 z m 0,0 m 1.48072,0 6.18802,-26.47713 5.01418,-6.18803 c 5.40447,-0.36645 10.22499,0.4469 14.80717,-2.1153 2.06466,-1.15598 3.0538,-4.89501 2.27023,-7.12949 -1.17683,-3.35172 -3.47387,-5.84839 -6.81368,-8.45826 l 0.15492,-6.423386 44.72839,-35.564021 c -0.23239,8.222895 -1.41518,17.986092 -7.75515,23.030063 l -14.96209,11.905318 c -2.80353,2.23151 -4.34682,7.904106 -1.95741,10.576546 l 5.95266,6.65876 c 1.04574,1.16789 1.0219,3.75989 -0.23239,4.69837 z m 0,0 m -0.73887,-8.51189 4.33788,-19.81241 4.83839,-4.895 -9.17627,3.13125 -9.17925,-3.13125 4.84138,4.895 z m 0,0 m -0.0358,-24.01026 -6.2625,-4.4779 h -10.9311 l 2.88398,-2.35365 7.59128,-0.87294 v -1.74587 c 0,-1.68331 -3.31001,0.0358 -5.04695,-0.68525 1.47773,-0.87293 2.72308,-2.69628 4.43917,-2.61881 1.43007,0.0655 2.54731,1.64756 3.11338,2.96143 z m 0,0 m 0.0685,0 6.2625,-4.4779 h 10.9311 l -2.88397,-2.35365 -7.59129,-0.87294 v -1.74587 c 0,-1.68331 3.31001,0.0358 5.04993,-0.68525 -1.48071,-0.87293 -2.72606,-2.69628 -4.44215,-2.61881 -1.43006,0.0655 -2.54731,1.64756 -3.1104,2.96143 z m 0,0 m -0.0328,-0.10428 c 0.0894,-2.76777 2.52646,-9.10774 2.85419,-13.92826 1.13213,-0.71206 2.26129,-1.42709 3.39342,-2.14213 -0.51244,-7.001376 -1.33175,-13.856762 -2.32087,-20.619795 -1.13214,4.969488 -0.83421,11.008549 -1.25132,16.514305 -0.89081,-0.50648 -1.7846,-1.012956 -2.67542,-1.519436 -0.89379,0.50648 -1.78758,1.012956 -2.6784,1.519436 -0.4171,-5.505756 -0.11917,-11.544817 -1.25131,-16.514305 -0.98913,6.763033 -1.80546,13.618419 -2.32088,20.619795 1.13214,0.71504 2.2613,1.43007 3.39343,2.14213 0.32773,4.82052 2.76778,11.16049 2.85716,13.92826" />
</svg>
