<?xml version="1.0" encoding="UTF-8" standalone="no"?>
<svg
   width="240pt"
   height="240pt"
   viewBox="0 0 240 239.99999"
   version="1.1"
   id="svg31"
   sodipodi:docname="elite-assist.svg"
   inkscape:version="1.1.2 (b8e25be833, 2022-02-05)"
   inkscape:export-filename="C:\Users\keath\ws\EliteAssist\EliteAssistUI\assets\elite-assist.png"
   inkscape:export-xdpi="155.46001"
   inkscape:export-ydpi="155.46001"
   xmlns:inkscape="http://www.inkscape.org/namespaces/inkscape"
   xmlns:sodipodi="http://sodipodi.sourceforge.net/DTD/sodipodi-0.dtd"
   xmlns="http://www.w3.org/2000/svg"
   xmlns:svg="http://www.w3.org/2000/svg">
  <defs
     id="defs35" />
  <sodipodi:namedview
     id="namedview33"
     pagecolor="#000000"
     bordercolor="#666666"
     borderopacity="1.0"
     inkscape:pageshadow="2"
     inkscape:pageopacity="0"
     inkscape:pagecheckerboard="true"
     inkscape:document-units="pt"
     showgrid="false"
     inkscape:zoom="2.8284271"
     inkscape:cx="152.02796"
     inkscape:cy="158.92225"
     inkscape:window-width="3840"
     inkscape:window-height="2054"
     inkscape:window-x="-11"
     inkscape:window-y="-11"
     inkscape:window-maximized="1"
     inkscape:current-layer="svg31" />
  <circle
     style="fill:#653904;fill-opacity:1;stroke:none;stroke-width:15;stroke-linecap:round;stroke-linejoin:round;stroke-opacity:1;stop-color:#000000"
     id="path1409"
     cx="120"
     cy="120"
     r="109.5" />
  <circle
     style="fill:#162d50;fill-opacity:1;stroke:#80b3ff;stroke-width:15;stroke-linecap:round;stroke-linejoin:round;stroke-miterlimit:4;stroke-dasharray:none;stroke-opacity:1;stop-color:#000000"
     id="path1141"
     cx="120"
     cy="120"
     r="111.06315" />
  <path
     id="path28"
     style="fill:#80b3ff;fill-opacity:1;fill-rule:evenodd;stroke:none;stroke-width:0.999999;stroke-miterlimit:4;stroke-dasharray:none"
     d="m 118.12453,218.31686 c -0.37421,-0.85596 -0.23303,-2.78753 0.0941,-3.45303 0.32491,-0.66553 0.66775,-0.9389 1.14057,-1.26829 -1.64251,-1.32208 -3.19761,-2.71138 -2.42678,-6.41763 l 3.00265,-14.41278 0.9994,-1.6201 0.99938,1.6201 3.00043,14.41278 c 0.77083,3.70625 -0.78427,5.09555 -2.42677,6.41763 0.47281,0.32939 0.81564,0.60276 1.14279,1.26829 0.32492,0.6655 0.46833,2.59707 0.0919,3.45303 -1.04419,2.38423 -4.57345,2.38423 -5.61766,0 m 2.80996,-29.17508 -2.14444,2.67101 -1.95398,9.81915 -4.48157,-3.4329 8.57999,-16.54151 8.57774,16.54151 -4.47934,3.4329 -1.95619,-9.81915 z m 0,0 m -44.961481,-30.05799 17.35045,13.5299 c 1.048696,0.81789 1.909154,2.17357 1.909154,3.50235 v 5.25241 L 78.30791,167.73326 c -1.165212,-0.93892 -2.12427,-2.43127 -2.17581,-3.92588 z m 0,0 m 89.920721,0 -17.35046,13.5299 c -1.04868,0.81789 -1.90915,2.17357 -1.90915,3.50235 v 5.25241 l 16.92471,-13.63519 c 1.1652,-0.93892 2.12427,-2.43127 2.1758,-3.92588 z m 0,0 M 68.786786,110.39587 31.087706,81.22749 c -0.165819,7.264647 2.767378,15.136548 8.255076,19.64726 l 13.592642,11.17259 0.05602,2.25648 -8.530693,-6.65963 c -0.03586,6.09046 2.043601,12.58652 6.493814,16.45636 l 13.043646,11.33618 v 2.09289 l -7.154848,-5.72523 c -0.717053,5.95604 2.137717,11.5692 6.384016,14.91471 l 30.656261,24.16022 c 1.68061,1.32655 3.085573,3.52925 3.025075,5.6692 l -0.109802,3.96172 c -0.0336,1.25485 0.730498,2.56794 1.707486,3.35895 l 13.538861,10.95074 7.31843,-14.80491 -36.433026,-27.73652 -0.770838,-4.29334 2.256481,-2.64191 -7.540267,-5.72297 -2.529854,-4.56898 -0.112038,-8.75028 c -3.130387,-2.60829 -5.400308,-6.98231 -5.447366,-15.90515 m 104.293158,0 37.69909,-29.16838 c 0.16582,7.264647 -2.76738,15.136548 -8.25508,19.64726 l -13.59264,11.17259 -0.0559,2.25648 8.53069,-6.65963 c 0.0359,6.09046 -2.0436,12.58652 -6.49381,16.45636 l -13.04369,11.33618 v 2.09289 l 7.15485,-5.72523 c 0.71705,5.95604 -2.13772,11.5692 -6.38401,14.91471 l -30.65406,24.16022 c -1.68285,1.32655 -3.08781,3.52925 -3.02732,5.6692 l 0.1098,3.96172 c 0.0336,1.25485 -0.73049,2.56794 -1.70523,3.35895 l -13.53888,10.95074 -7.32066,-14.80491 36.43304,-27.73652 0.77082,-4.29334 -2.25647,-2.64191 7.54027,-5.72297 2.53209,-4.56898 0.10979,-8.75028 c 3.1304,-2.60829 5.40032,-6.98231 5.44737,-15.90515 m -97.046442,17.64849 -0.07842,6.37728 c -0.01345,1.09799 0.42575,2.3506 1.283973,3.03403 l 8.438824,6.72685 2.099619,-2.76065 c 0.934408,-1.22795 0.627424,-3.63456 -0.582605,-4.58913 z m 0,0 m 89.799732,0 0.0784,6.37728 c 0.0135,1.09799 -0.42575,2.3506 -1.28397,3.03403 l -8.43881,6.72685 -2.09964,-2.76065 c -0.93217,-1.22795 -0.62741,-3.63456 0.58262,-4.58913 z m 0,0 m -45.45672,50.07048 -4.65413,-19.91392 -3.77124,-4.65414 c -4.0648,-0.2756 -7.68816,0.33613 -11.13449,-1.59095 -1.55511,-0.86944 -2.299063,-3.68162 -1.709726,-5.36221 0.885106,-2.52089 2.612756,-4.39868 5.126926,-6.36161 l -0.11881,-4.83114 -33.641014,-26.74833 c 0.177023,6.18458 1.064376,13.52766 5.83278,17.32132 l 11.253259,8.9542 c 2.108584,1.67836 3.269311,5.94482 1.472202,7.95481 l -4.477101,5.00816 c -0.786519,0.87839 -0.768597,2.82788 0.177019,3.53373 z m 0,0 m 1.11368,0 4.65411,-19.91392 3.77127,-4.65414 c 4.06479,-0.2756 7.6904,0.33613 11.13673,-1.59095 1.55287,-0.86944 2.29682,-3.68162 1.70748,-5.36221 -0.88512,-2.52089 -2.61277,-4.39868 -5.12469,-6.36161 l 0.11652,-4.83114 33.64101,-26.74833 c -0.17478,6.18458 -1.06438,13.52766 -5.83278,17.32132 l -11.2533,8.9542 c -2.10858,1.67836 -3.26932,5.94482 -1.47219,7.95481 l 4.4771,5.00816 c 0.78653,0.87839 0.7686,2.82788 -0.17478,3.53373 z m 0,0 m -0.55572,-6.40195 3.2626,-14.90127 3.63905,-3.68161 -6.90165,2.35507 -6.90387,-2.35507 3.64128,3.68161 z m 0,0 m -0.0269,-18.05854 -4.71014,-3.36792 h -8.22146 l 2.16908,-1.7702 5.70954,-0.65657 v -1.3131 c 0,-1.26604 -2.48951,0.0269 -3.79591,-0.51538 1.11144,-0.65655 2.04808,-2.02792 3.33878,-1.96966 1.07559,0.0493 1.91589,1.23915 2.34163,2.22734 z m 0,0 m 0.0516,0 4.71014,-3.36792 h 8.22148 l -2.1691,-1.7702 -5.70954,-0.65657 v -1.3131 c 0,-1.26604 2.48951,0.0269 3.79815,-0.51538 -1.11367,-0.65655 -2.05032,-2.02792 -3.34103,-1.96966 -1.07556,0.0493 -1.91587,1.23915 -2.33939,2.22734 z m 0,0 m -0.0246,-0.0784 c 0.0673,-2.08168 1.90019,-6.85008 2.14668,-10.47569 0.8515,-0.53555 1.70076,-1.07334 2.55226,-1.61114 -0.38541,-5.26585 -1.00164,-10.42191 -1.74557,-15.50851 -0.8515,3.73764 -0.62742,8.27973 -0.94114,12.4207 -0.66999,-0.38093 -1.34223,-0.76186 -2.01223,-1.14279 -0.67224,0.38093 -1.34446,0.76186 -2.01448,1.14279 -0.3137,-4.14097 -0.0896,-8.68306 -0.94113,-12.4207 -0.74394,5.0866 -1.35792,10.24266 -1.74557,15.50851 0.8515,0.5378 1.70076,1.07559 2.55226,1.61114 0.2465,3.62561 2.08169,8.39401 2.14892,10.47569" />
  <path
     sodipodi:type="star"
     style="fill:#80b3ff;fill-opacity:1;stroke:none;stroke-width:50.711;stroke-linecap:round;stroke-linejoin:round;stroke-opacity:1;stop-color:#000000"
     id="path4596"
     inkscape:flatsided="false"
     sodipodi:sides="5"
     sodipodi:cx="472"
     sodipodi:cy="-245"
     sodipodi:r1="134.35773"
     sodipodi:r2="67.178864"
     sodipodi:arg1="0.78539816"
     sodipodi:arg2="1.4137167"
     inkscape:rounded="0"
     inkscape:randomized="0"
     d="m 567.00526,-149.99474 -84.49617,-28.65348 -71.50622,53.36183 1.14032,-89.21504 -72.84675,-51.51675 85.20093,-26.48445 26.48445,-85.20093 51.51675,72.84675 89.21504,-1.14032 -53.36183,71.50622 z"
     transform="matrix(0.04587332,0.29221482,-0.29221482,0.04587332,28.999334,-55.058516)"
     inkscape:transform-center-x="-2.6999408"
     inkscape:transform-center-y="-7.4616093" />
</svg>
